# xmcd
#
# Track frame offsets: 
#        150
#        9239
#        29178
#        46426
#        66339
#        101384
#        118440
#        129555
#        151220
#        190099
#        203575
#        214234
#        220999
#        234057
#        248853
#        286605
#        312224
#
# Disc length: 4291 seconds
#
# Revision: 0
# Processed by: cddbd v1.5.2PL0 Copyright (c) Steve Scherf et al.
# Submitted via: ExactAudioCopy v0.95b3
#
DISCID=f010c111
DTITLE=Judas Priest  - Hero Hero 20 bit K2 actual rodger bain mixes  F
DTITLE=LAC
DYEAR=1900
DGENRE=
TTITLE0=Prelude
TTITLE1=Tyrant
TTITLE2=Rocka Rolla
TTITLE3=One For The Road
TTITLE4=Victim Of Changes
TTITLE5=Dying To Meet You
TTITLE6=Never Satisfied
TTITLE7=Dreamer Deceiver
TTITLE8=Deceiver
TTITLE9=Winter
TTITLE10=Deep Freese
TTITLE11=Winter Retreat
TTITLE12=Cheater
TTITLE13=Diamonds And Rust
TTITLE14=Run Of The Mill
TTITLE15=Genocide
TTITLE16=Caviar And Meths
EXTD=
EXTT0=
EXTT1=
EXTT2=
EXTT3=
EXTT4=
EXTT5=
EXTT6=
EXTT7=
EXTT8=
EXTT9=
EXTT10=
EXTT11=
EXTT12=
EXTT13=
EXTT14=
EXTT15=
EXTT16=
PLAYORDER=
